<svg width="31" height="31" viewBox="0 0 31 31" fill="none" xmlns="http://www.w3.org/2000/svg">
<path d="M0.57038 16.1227C0.180858 16.5142 0.182481 17.1474 0.574004 17.5369C0.965528 17.9265 1.59869 17.9248 1.98821 17.5333L0.57038 16.1227ZM14.6883 1.40023L14.957 0.436999V0.436999L14.6883 1.40023ZM18.0821 2.34694L18.3508 1.38372V1.38372L18.0821 2.34694ZM19.5469 3.31948L18.7701 3.94919V3.94919L19.5469 3.31948ZM27.7252 15.9563L26.815 16.3705L27.7252 15.9563ZM10.7254 3.48112L9.9899 2.80356V2.80356L10.7254 3.48112ZM13.9074 8.01808L13.7445 7.03144H13.7445L13.9074 8.01808ZM17.9658 9.89295L18.759 9.28399L18.759 9.28399L17.9658 9.89295ZM19.3562 14.9793L18.3623 15.0894V15.0894L19.3562 14.9793ZM20.4241 17.7306L19.8627 18.5582C20.283 18.8433 20.8502 18.7681 21.1817 18.3834C21.5132 17.9987 21.5037 17.4266 21.1596 17.0531L20.4241 17.7306ZM9.33055 18.7094C8.98828 19.1429 9.06219 19.7717 9.49562 20.114C9.92906 20.4562 10.5579 20.3823 10.9002 19.9489L9.33055 18.7094ZM9.25249 6.06715L8.26736 6.23894V6.23894L9.25249 6.06715ZM29.4032 23.4684L30.332 23.839L29.4032 23.4684ZM23.3714 27.225L23.6842 28.1748L23.3714 27.225ZM16.1545 7.85563L16.5352 6.93094L16.5352 6.93094L16.1545 7.85563ZM12.9458 27.4434L13.6637 28.1395L13.6637 28.1395L12.9458 27.4434ZM2.01477 26.6442C1.64058 26.238 1.00794 26.2121 0.601748 26.5863C0.195555 26.9605 0.169619 27.5931 0.543819 27.9993L2.01477 26.6442ZM13.1948 27.0954L13.5589 26.164C13.1025 25.9856 12.5839 26.1642 12.3343 26.5859L13.1948 27.0954ZM13.1459 27.1778L12.2855 26.6683L12.2854 26.6684L13.1459 27.1778ZM13.7648 16.6779L14.0704 17.6301L13.7648 16.6779ZM14.6883 1.40023L14.4196 2.36345L17.8134 3.31017L18.0821 2.34694L18.3508 1.38372L14.957 0.436999L14.6883 1.40023ZM19.5469 3.31948L18.7701 3.94919C22.4495 8.48812 24.8093 11.9638 26.815 16.3705L27.7252 15.9563L28.6353 15.542C26.5339 10.925 24.0627 7.30219 20.3238 2.68976L19.5469 3.31948ZM19.3562 14.9793L18.3623 15.0894C18.4837 16.186 18.8378 17.4847 19.6886 18.4082L20.4241 17.7306L21.1596 17.0531C20.7286 16.5852 20.4517 15.7862 20.3502 14.8693L19.3562 14.9793ZM17.9658 9.89295L17.1726 10.5019C17.4516 10.8652 17.6463 11.119 17.783 11.309C17.9341 11.5188 17.954 11.5706 17.9452 11.5483L18.8745 11.1791L19.8039 10.8098C19.7106 10.5751 19.551 10.3416 19.4062 10.1405C19.247 9.91945 19.0296 9.63642 18.759 9.28399L17.9658 9.89295ZM19.3562 14.9793L20.3502 14.8693C20.2181 13.6763 20.1179 12.772 20.0403 12.14C20.0015 11.8247 19.9671 11.5667 19.9359 11.3697C19.9116 11.2164 19.8737 10.9855 19.8039 10.8098L18.8745 11.1791L17.9452 11.5483C17.9176 11.4789 17.9279 11.4772 17.9605 11.6827C17.9861 11.8445 18.0172 12.0748 18.0552 12.384C18.131 13.001 18.2296 13.8906 18.3623 15.0894L19.3562 14.9793ZM10.7254 3.48112L9.9899 2.80356C9.476 3.36137 8.99682 3.87592 8.68584 4.36606C8.33874 4.91314 8.14151 5.51722 8.26736 6.23894L9.25249 6.06715L10.2376 5.89537C10.2187 5.78691 10.2187 5.68327 10.3746 5.43752C10.5667 5.13483 10.8963 4.77145 11.4608 4.15869L10.7254 3.48112ZM27.7252 15.9563L26.815 16.3705C27.6592 18.2253 28.2391 19.507 28.5262 20.5759C28.7985 21.5891 28.7823 22.326 28.4744 23.0978L29.4032 23.4684L30.332 23.839C30.8373 22.5725 30.8127 21.3779 30.4578 20.0569C30.1178 18.7916 29.4521 17.3365 28.6353 15.542L27.7252 15.9563ZM23.3714 27.225L23.6842 28.1748C25.3876 27.614 26.7995 27.1535 27.8736 26.5552C29.0124 25.9207 29.827 25.1047 30.332 23.839L29.4032 23.4684L28.4744 23.0978C28.166 23.8706 27.7042 24.3601 26.9002 24.808C26.0315 25.292 24.8342 25.6906 23.0587 26.2752L23.3714 27.225ZM13.9074 8.01808L14.0703 9.00472C14.7143 8.89841 15.1436 8.82815 15.459 8.79896C15.7984 8.76753 15.834 8.80511 15.7738 8.78031L16.1545 7.85563L16.5352 6.93094C16.1135 6.7573 15.654 6.77235 15.2746 6.80747C14.871 6.84484 14.3576 6.93023 13.7445 7.03144L13.9074 8.01808ZM12.9458 27.4434L12.2278 26.7473C10.962 28.0529 9.05426 28.7374 7.09417 28.7192C5.13429 28.701 3.2468 27.9816 2.01477 26.6442L1.2793 27.3218L0.543819 27.9993C2.21932 29.8181 4.67444 30.6968 7.0756 30.7191C9.47655 30.7414 11.9483 29.9088 13.6637 28.1395L12.9458 27.4434ZM23.3714 27.225L23.0587 26.2752C19.7309 27.3709 16.9045 27.472 13.5589 26.164L13.1948 27.0954L12.8306 28.0267C16.677 29.5305 19.9888 29.3916 23.6842 28.1748L23.3714 27.225ZM13.1459 27.1778L14.0064 27.6873L14.0553 27.6048L13.1948 27.0954L12.3343 26.5859L12.2855 26.6683L13.1459 27.1778ZM12.9458 27.4434L13.6637 28.1395C13.8042 27.9945 13.9165 27.8392 14.0065 27.6872L13.1459 27.1778L12.2854 26.6684C12.2621 26.7079 12.242 26.7327 12.2278 26.7473L12.9458 27.4434ZM20.4241 17.7306L20.9855 16.9031C19.4943 15.8915 16.5212 14.7429 13.4592 15.7258L13.7648 16.6779L14.0704 17.6301C16.3523 16.8977 18.6832 17.758 19.8627 18.5582L20.4241 17.7306ZM13.7648 16.6779L13.4592 15.7258C12.0021 16.1934 10.5774 17.1305 9.33055 18.7094L10.1154 19.3292L10.9002 19.9489C11.9151 18.6637 13.0133 17.9694 14.0704 17.6301L13.7648 16.6779ZM13.7648 16.6779L14.4509 15.9504C12.6188 14.2224 10.004 13.4195 7.4746 13.4466C4.94532 13.4737 2.35133 14.3326 0.57038 16.1227L1.2793 16.828L1.98821 17.5333C3.31659 16.1981 5.36172 15.4694 7.49603 15.4465C9.63019 15.4236 11.7035 16.1084 13.0787 17.4054L13.7648 16.6779ZM16.1545 7.85563L15.7738 8.78031C15.9017 8.83299 16.0929 8.99058 16.365 9.35072C16.4923 9.51924 16.6151 9.70095 16.7501 9.90125C16.8783 10.0914 17.024 10.3083 17.1726 10.5019L17.9658 9.89295L18.759 9.28399C18.6553 9.14884 18.5457 8.98677 18.4086 8.78337C18.2783 8.59013 18.1259 8.36373 17.9608 8.14519C17.6481 7.73121 17.186 7.19891 16.5352 6.93094L16.1545 7.85563ZM18.0821 2.34694L17.8134 3.31017C18.0392 3.37314 18.1685 3.41011 18.2642 3.44357C18.3485 3.47304 18.3667 3.48662 18.367 3.48679C18.3683 3.48768 18.3906 3.5015 18.456 3.57298C18.5285 3.65223 18.6182 3.76184 18.7701 3.94919L19.5469 3.31948L20.3238 2.68976C20.0695 2.37609 19.8153 2.04796 19.4741 1.82114C19.1278 1.59098 18.729 1.48921 18.3508 1.38372L18.0821 2.34694ZM14.6883 1.40023L14.957 0.436999C13.6857 0.0823702 12.6791 0.36191 11.8498 0.948721C11.1295 1.45837 10.4911 2.25957 9.9899 2.80356L10.7254 3.48112L11.4608 4.15869C12.1278 3.43473 12.5142 2.92862 13.0049 2.58137C13.3867 2.31129 13.7775 2.18435 14.4196 2.36345L14.6883 1.40023ZM9.25249 6.06715L8.26736 6.23894C8.5223 7.70097 9.83293 8.42 10.8772 8.74481C11.9737 9.08585 13.218 9.14544 14.0703 9.00472L13.9074 8.01808L13.7445 7.03144C13.2074 7.12012 12.2779 7.08596 11.4712 6.83505C10.6123 6.5679 10.2902 6.19677 10.2376 5.89537L9.25249 6.06715Z" fill="url(#paint0_linear_2799_43301)"/>
<path d="M0.57038 16.1227C0.180858 16.5142 0.182481 17.1474 0.574004 17.5369C0.965528 17.9265 1.59869 17.9248 1.98821 17.5333L0.57038 16.1227ZM14.6883 1.40023L14.957 0.436999V0.436999L14.6883 1.40023ZM18.0821 2.34694L18.3508 1.38372V1.38372L18.0821 2.34694ZM19.5469 3.31948L18.7701 3.94919V3.94919L19.5469 3.31948ZM27.7252 15.9563L26.815 16.3705L27.7252 15.9563ZM10.7254 3.48112L9.9899 2.80356V2.80356L10.7254 3.48112ZM13.9074 8.01808L13.7445 7.03144H13.7445L13.9074 8.01808ZM17.9658 9.89295L18.759 9.28399L18.759 9.28399L17.9658 9.89295ZM19.3562 14.9793L18.3623 15.0894V15.0894L19.3562 14.9793ZM20.4241 17.7306L19.8627 18.5582C20.283 18.8433 20.8502 18.7681 21.1817 18.3834C21.5132 17.9987 21.5037 17.4266 21.1596 17.0531L20.4241 17.7306ZM9.33055 18.7094C8.98828 19.1429 9.06219 19.7717 9.49562 20.114C9.92906 20.4562 10.5579 20.3823 10.9002 19.9489L9.33055 18.7094ZM9.25249 6.06715L8.26736 6.23894V6.23894L9.25249 6.06715ZM29.4032 23.4684L30.332 23.839L29.4032 23.4684ZM23.3714 27.225L23.6842 28.1748L23.3714 27.225ZM16.1545 7.85563L16.5352 6.93094L16.5352 6.93094L16.1545 7.85563ZM12.9458 27.4434L13.6637 28.1395L13.6637 28.1395L12.9458 27.4434ZM2.01477 26.6442C1.64058 26.238 1.00794 26.2121 0.601748 26.5863C0.195555 26.9605 0.169619 27.5931 0.543819 27.9993L2.01477 26.6442ZM13.1948 27.0954L13.5589 26.164C13.1025 25.9856 12.5839 26.1642 12.3343 26.5859L13.1948 27.0954ZM13.1459 27.1778L12.2855 26.6683L12.2854 26.6684L13.1459 27.1778ZM13.7648 16.6779L14.0704 17.6301L13.7648 16.6779ZM14.6883 1.40023L14.4196 2.36345L17.8134 3.31017L18.0821 2.34694L18.3508 1.38372L14.957 0.436999L14.6883 1.40023ZM19.5469 3.31948L18.7701 3.94919C22.4495 8.48812 24.8093 11.9638 26.815 16.3705L27.7252 15.9563L28.6353 15.542C26.5339 10.925 24.0627 7.30219 20.3238 2.68976L19.5469 3.31948ZM19.3562 14.9793L18.3623 15.0894C18.4837 16.186 18.8378 17.4847 19.6886 18.4082L20.4241 17.7306L21.1596 17.0531C20.7286 16.5852 20.4517 15.7862 20.3502 14.8693L19.3562 14.9793ZM17.9658 9.89295L17.1726 10.5019C17.4516 10.8652 17.6463 11.119 17.783 11.309C17.9341 11.5188 17.954 11.5706 17.9452 11.5483L18.8745 11.1791L19.8039 10.8098C19.7106 10.5751 19.551 10.3416 19.4062 10.1405C19.247 9.91945 19.0296 9.63642 18.759 9.28399L17.9658 9.89295ZM19.3562 14.9793L20.3502 14.8693C20.2181 13.6763 20.1179 12.772 20.0403 12.14C20.0015 11.8247 19.9671 11.5667 19.9359 11.3697C19.9116 11.2164 19.8737 10.9855 19.8039 10.8098L18.8745 11.1791L17.9452 11.5483C17.9176 11.4789 17.9279 11.4772 17.9605 11.6827C17.9861 11.8445 18.0172 12.0748 18.0552 12.384C18.131 13.001 18.2296 13.8906 18.3623 15.0894L19.3562 14.9793ZM10.7254 3.48112L9.9899 2.80356C9.476 3.36137 8.99682 3.87592 8.68584 4.36606C8.33874 4.91314 8.14151 5.51722 8.26736 6.23894L9.25249 6.06715L10.2376 5.89537C10.2187 5.78691 10.2187 5.68327 10.3746 5.43752C10.5667 5.13483 10.8963 4.77145 11.4608 4.15869L10.7254 3.48112ZM27.7252 15.9563L26.815 16.3705C27.6592 18.2253 28.2391 19.507 28.5262 20.5759C28.7985 21.5891 28.7823 22.326 28.4744 23.0978L29.4032 23.4684L30.332 23.839C30.8373 22.5725 30.8127 21.3779 30.4578 20.0569C30.1178 18.7916 29.4521 17.3365 28.6353 15.542L27.7252 15.9563ZM23.3714 27.225L23.6842 28.1748C25.3876 27.614 26.7995 27.1535 27.8736 26.5552C29.0124 25.9207 29.827 25.1047 30.332 23.839L29.4032 23.4684L28.4744 23.0978C28.166 23.8706 27.7042 24.3601 26.9002 24.808C26.0315 25.292 24.8342 25.6906 23.0587 26.2752L23.3714 27.225ZM13.9074 8.01808L14.0703 9.00472C14.7143 8.89841 15.1436 8.82815 15.459 8.79896C15.7984 8.76753 15.834 8.80511 15.7738 8.78031L16.1545 7.85563L16.5352 6.93094C16.1135 6.7573 15.654 6.77235 15.2746 6.80747C14.871 6.84484 14.3576 6.93023 13.7445 7.03144L13.9074 8.01808ZM12.9458 27.4434L12.2278 26.7473C10.962 28.0529 9.05426 28.7374 7.09417 28.7192C5.13429 28.701 3.2468 27.9816 2.01477 26.6442L1.2793 27.3218L0.543819 27.9993C2.21932 29.8181 4.67444 30.6968 7.0756 30.7191C9.47655 30.7414 11.9483 29.9088 13.6637 28.1395L12.9458 27.4434ZM23.3714 27.225L23.0587 26.2752C19.7309 27.3709 16.9045 27.472 13.5589 26.164L13.1948 27.0954L12.8306 28.0267C16.677 29.5305 19.9888 29.3916 23.6842 28.1748L23.3714 27.225ZM13.1459 27.1778L14.0064 27.6873L14.0553 27.6048L13.1948 27.0954L12.3343 26.5859L12.2855 26.6683L13.1459 27.1778ZM12.9458 27.4434L13.6637 28.1395C13.8042 27.9945 13.9165 27.8392 14.0065 27.6872L13.1459 27.1778L12.2854 26.6684C12.2621 26.7079 12.242 26.7327 12.2278 26.7473L12.9458 27.4434ZM20.4241 17.7306L20.9855 16.9031C19.4943 15.8915 16.5212 14.7429 13.4592 15.7258L13.7648 16.6779L14.0704 17.6301C16.3523 16.8977 18.6832 17.758 19.8627 18.5582L20.4241 17.7306ZM13.7648 16.6779L13.4592 15.7258C12.0021 16.1934 10.5774 17.1305 9.33055 18.7094L10.1154 19.3292L10.9002 19.9489C11.9151 18.6637 13.0133 17.9694 14.0704 17.6301L13.7648 16.6779ZM13.7648 16.6779L14.4509 15.9504C12.6188 14.2224 10.004 13.4195 7.4746 13.4466C4.94532 13.4737 2.35133 14.3326 0.57038 16.1227L1.2793 16.828L1.98821 17.5333C3.31659 16.1981 5.36172 15.4694 7.49603 15.4465C9.63019 15.4236 11.7035 16.1084 13.0787 17.4054L13.7648 16.6779ZM16.1545 7.85563L15.7738 8.78031C15.9017 8.83299 16.0929 8.99058 16.365 9.35072C16.4923 9.51924 16.6151 9.70095 16.7501 9.90125C16.8783 10.0914 17.024 10.3083 17.1726 10.5019L17.9658 9.89295L18.759 9.28399C18.6553 9.14884 18.5457 8.98677 18.4086 8.78337C18.2783 8.59013 18.1259 8.36373 17.9608 8.14519C17.6481 7.73121 17.186 7.19891 16.5352 6.93094L16.1545 7.85563ZM18.0821 2.34694L17.8134 3.31017C18.0392 3.37314 18.1685 3.41011 18.2642 3.44357C18.3485 3.47304 18.3667 3.48662 18.367 3.48679C18.3683 3.48768 18.3906 3.5015 18.456 3.57298C18.5285 3.65223 18.6182 3.76184 18.7701 3.94919L19.5469 3.31948L20.3238 2.68976C20.0695 2.37609 19.8153 2.04796 19.4741 1.82114C19.1278 1.59098 18.729 1.48921 18.3508 1.38372L18.0821 2.34694ZM14.6883 1.40023L14.957 0.436999C13.6857 0.0823702 12.6791 0.36191 11.8498 0.948721C11.1295 1.45837 10.4911 2.25957 9.9899 2.80356L10.7254 3.48112L11.4608 4.15869C12.1278 3.43473 12.5142 2.92862 13.0049 2.58137C13.3867 2.31129 13.7775 2.18435 14.4196 2.36345L14.6883 1.40023ZM9.25249 6.06715L8.26736 6.23894C8.5223 7.70097 9.83293 8.42 10.8772 8.74481C11.9737 9.08585 13.218 9.14544 14.0703 9.00472L13.9074 8.01808L13.7445 7.03144C13.2074 7.12012 12.2779 7.08596 11.4712 6.83505C10.6123 6.5679 10.2902 6.19677 10.2376 5.89537L9.25249 6.06715Z" fill="black" fill-opacity="0.2"/>
<path d="M0.57038 16.1227C0.180858 16.5142 0.182481 17.1474 0.574004 17.5369C0.965528 17.9265 1.59869 17.9248 1.98821 17.5333L0.57038 16.1227ZM14.6883 1.40023L14.957 0.436999V0.436999L14.6883 1.40023ZM18.0821 2.34694L18.3508 1.38372V1.38372L18.0821 2.34694ZM19.5469 3.31948L18.7701 3.94919V3.94919L19.5469 3.31948ZM27.7252 15.9563L26.815 16.3705L27.7252 15.9563ZM10.7254 3.48112L9.9899 2.80356V2.80356L10.7254 3.48112ZM13.9074 8.01808L13.7445 7.03144H13.7445L13.9074 8.01808ZM17.9658 9.89295L18.759 9.28399L18.759 9.28399L17.9658 9.89295ZM19.3562 14.9793L18.3623 15.0894V15.0894L19.3562 14.9793ZM20.4241 17.7306L19.8627 18.5582C20.283 18.8433 20.8502 18.7681 21.1817 18.3834C21.5132 17.9987 21.5037 17.4266 21.1596 17.0531L20.4241 17.7306ZM9.33055 18.7094C8.98828 19.1429 9.06219 19.7717 9.49562 20.114C9.92906 20.4562 10.5579 20.3823 10.9002 19.9489L9.33055 18.7094ZM9.25249 6.06715L8.26736 6.23894V6.23894L9.25249 6.06715ZM29.4032 23.4684L30.332 23.839L29.4032 23.4684ZM23.3714 27.225L23.6842 28.1748L23.3714 27.225ZM16.1545 7.85563L16.5352 6.93094L16.5352 6.93094L16.1545 7.85563ZM12.9458 27.4434L13.6637 28.1395L13.6637 28.1395L12.9458 27.4434ZM2.01477 26.6442C1.64058 26.238 1.00794 26.2121 0.601748 26.5863C0.195555 26.9605 0.169619 27.5931 0.543819 27.9993L2.01477 26.6442ZM13.1948 27.0954L13.5589 26.164C13.1025 25.9856 12.5839 26.1642 12.3343 26.5859L13.1948 27.0954ZM13.1459 27.1778L12.2855 26.6683L12.2854 26.6684L13.1459 27.1778ZM13.7648 16.6779L14.0704 17.6301L13.7648 16.6779ZM14.6883 1.40023L14.4196 2.36345L17.8134 3.31017L18.0821 2.34694L18.3508 1.38372L14.957 0.436999L14.6883 1.40023ZM19.5469 3.31948L18.7701 3.94919C22.4495 8.48812 24.8093 11.9638 26.815 16.3705L27.7252 15.9563L28.6353 15.542C26.5339 10.925 24.0627 7.30219 20.3238 2.68976L19.5469 3.31948ZM19.3562 14.9793L18.3623 15.0894C18.4837 16.186 18.8378 17.4847 19.6886 18.4082L20.4241 17.7306L21.1596 17.0531C20.7286 16.5852 20.4517 15.7862 20.3502 14.8693L19.3562 14.9793ZM17.9658 9.89295L17.1726 10.5019C17.4516 10.8652 17.6463 11.119 17.783 11.309C17.9341 11.5188 17.954 11.5706 17.9452 11.5483L18.8745 11.1791L19.8039 10.8098C19.7106 10.5751 19.551 10.3416 19.4062 10.1405C19.247 9.91945 19.0296 9.63642 18.759 9.28399L17.9658 9.89295ZM19.3562 14.9793L20.3502 14.8693C20.2181 13.6763 20.1179 12.772 20.0403 12.14C20.0015 11.8247 19.9671 11.5667 19.9359 11.3697C19.9116 11.2164 19.8737 10.9855 19.8039 10.8098L18.8745 11.1791L17.9452 11.5483C17.9176 11.4789 17.9279 11.4772 17.9605 11.6827C17.9861 11.8445 18.0172 12.0748 18.0552 12.384C18.131 13.001 18.2296 13.8906 18.3623 15.0894L19.3562 14.9793ZM10.7254 3.48112L9.9899 2.80356C9.476 3.36137 8.99682 3.87592 8.68584 4.36606C8.33874 4.91314 8.14151 5.51722 8.26736 6.23894L9.25249 6.06715L10.2376 5.89537C10.2187 5.78691 10.2187 5.68327 10.3746 5.43752C10.5667 5.13483 10.8963 4.77145 11.4608 4.15869L10.7254 3.48112ZM27.7252 15.9563L26.815 16.3705C27.6592 18.2253 28.2391 19.507 28.5262 20.5759C28.7985 21.5891 28.7823 22.326 28.4744 23.0978L29.4032 23.4684L30.332 23.839C30.8373 22.5725 30.8127 21.3779 30.4578 20.0569C30.1178 18.7916 29.4521 17.3365 28.6353 15.542L27.7252 15.9563ZM23.3714 27.225L23.6842 28.1748C25.3876 27.614 26.7995 27.1535 27.8736 26.5552C29.0124 25.9207 29.827 25.1047 30.332 23.839L29.4032 23.4684L28.4744 23.0978C28.166 23.8706 27.7042 24.3601 26.9002 24.808C26.0315 25.292 24.8342 25.6906 23.0587 26.2752L23.3714 27.225ZM13.9074 8.01808L14.0703 9.00472C14.7143 8.89841 15.1436 8.82815 15.459 8.79896C15.7984 8.76753 15.834 8.80511 15.7738 8.78031L16.1545 7.85563L16.5352 6.93094C16.1135 6.7573 15.654 6.77235 15.2746 6.80747C14.871 6.84484 14.3576 6.93023 13.7445 7.03144L13.9074 8.01808ZM12.9458 27.4434L12.2278 26.7473C10.962 28.0529 9.05426 28.7374 7.09417 28.7192C5.13429 28.701 3.2468 27.9816 2.01477 26.6442L1.2793 27.3218L0.543819 27.9993C2.21932 29.8181 4.67444 30.6968 7.0756 30.7191C9.47655 30.7414 11.9483 29.9088 13.6637 28.1395L12.9458 27.4434ZM23.3714 27.225L23.0587 26.2752C19.7309 27.3709 16.9045 27.472 13.5589 26.164L13.1948 27.0954L12.8306 28.0267C16.677 29.5305 19.9888 29.3916 23.6842 28.1748L23.3714 27.225ZM13.1459 27.1778L14.0064 27.6873L14.0553 27.6048L13.1948 27.0954L12.3343 26.5859L12.2855 26.6683L13.1459 27.1778ZM12.9458 27.4434L13.6637 28.1395C13.8042 27.9945 13.9165 27.8392 14.0065 27.6872L13.1459 27.1778L12.2854 26.6684C12.2621 26.7079 12.242 26.7327 12.2278 26.7473L12.9458 27.4434ZM20.4241 17.7306L20.9855 16.9031C19.4943 15.8915 16.5212 14.7429 13.4592 15.7258L13.7648 16.6779L14.0704 17.6301C16.3523 16.8977 18.6832 17.758 19.8627 18.5582L20.4241 17.7306ZM13.7648 16.6779L13.4592 15.7258C12.0021 16.1934 10.5774 17.1305 9.33055 18.7094L10.1154 19.3292L10.9002 19.9489C11.9151 18.6637 13.0133 17.9694 14.0704 17.6301L13.7648 16.6779ZM13.7648 16.6779L14.4509 15.9504C12.6188 14.2224 10.004 13.4195 7.4746 13.4466C4.94532 13.4737 2.35133 14.3326 0.57038 16.1227L1.2793 16.828L1.98821 17.5333C3.31659 16.1981 5.36172 15.4694 7.49603 15.4465C9.63019 15.4236 11.7035 16.1084 13.0787 17.4054L13.7648 16.6779ZM16.1545 7.85563L15.7738 8.78031C15.9017 8.83299 16.0929 8.99058 16.365 9.35072C16.4923 9.51924 16.6151 9.70095 16.7501 9.90125C16.8783 10.0914 17.024 10.3083 17.1726 10.5019L17.9658 9.89295L18.759 9.28399C18.6553 9.14884 18.5457 8.98677 18.4086 8.78337C18.2783 8.59013 18.1259 8.36373 17.9608 8.14519C17.6481 7.73121 17.186 7.19891 16.5352 6.93094L16.1545 7.85563ZM18.0821 2.34694L17.8134 3.31017C18.0392 3.37314 18.1685 3.41011 18.2642 3.44357C18.3485 3.47304 18.3667 3.48662 18.367 3.48679C18.3683 3.48768 18.3906 3.5015 18.456 3.57298C18.5285 3.65223 18.6182 3.76184 18.7701 3.94919L19.5469 3.31948L20.3238 2.68976C20.0695 2.37609 19.8153 2.04796 19.4741 1.82114C19.1278 1.59098 18.729 1.48921 18.3508 1.38372L18.0821 2.34694ZM14.6883 1.40023L14.957 0.436999C13.6857 0.0823702 12.6791 0.36191 11.8498 0.948721C11.1295 1.45837 10.4911 2.25957 9.9899 2.80356L10.7254 3.48112L11.4608 4.15869C12.1278 3.43473 12.5142 2.92862 13.0049 2.58137C13.3867 2.31129 13.7775 2.18435 14.4196 2.36345L14.6883 1.40023ZM9.25249 6.06715L8.26736 6.23894C8.5223 7.70097 9.83293 8.42 10.8772 8.74481C11.9737 9.08585 13.218 9.14544 14.0703 9.00472L13.9074 8.01808L13.7445 7.03144C13.2074 7.12012 12.2779 7.08596 11.4712 6.83505C10.6123 6.5679 10.2902 6.19677 10.2376 5.89537L9.25249 6.06715Z" fill="black" fill-opacity="0.2"/>
<path d="M0.57038 16.1227C0.180858 16.5142 0.182481 17.1474 0.574004 17.5369C0.965528 17.9265 1.59869 17.9248 1.98821 17.5333L0.57038 16.1227ZM14.6883 1.40023L14.957 0.436999V0.436999L14.6883 1.40023ZM18.0821 2.34694L18.3508 1.38372V1.38372L18.0821 2.34694ZM19.5469 3.31948L18.7701 3.94919V3.94919L19.5469 3.31948ZM27.7252 15.9563L26.815 16.3705L27.7252 15.9563ZM10.7254 3.48112L9.9899 2.80356V2.80356L10.7254 3.48112ZM13.9074 8.01808L13.7445 7.03144H13.7445L13.9074 8.01808ZM17.9658 9.89295L18.759 9.28399L18.759 9.28399L17.9658 9.89295ZM19.3562 14.9793L18.3623 15.0894V15.0894L19.3562 14.9793ZM20.4241 17.7306L19.8627 18.5582C20.283 18.8433 20.8502 18.7681 21.1817 18.3834C21.5132 17.9987 21.5037 17.4266 21.1596 17.0531L20.4241 17.7306ZM9.33055 18.7094C8.98828 19.1429 9.06219 19.7717 9.49562 20.114C9.92906 20.4562 10.5579 20.3823 10.9002 19.9489L9.33055 18.7094ZM9.25249 6.06715L8.26736 6.23894V6.23894L9.25249 6.06715ZM29.4032 23.4684L30.332 23.839L29.4032 23.4684ZM23.3714 27.225L23.6842 28.1748L23.3714 27.225ZM16.1545 7.85563L16.5352 6.93094L16.5352 6.93094L16.1545 7.85563ZM12.9458 27.4434L13.6637 28.1395L13.6637 28.1395L12.9458 27.4434ZM2.01477 26.6442C1.64058 26.238 1.00794 26.2121 0.601748 26.5863C0.195555 26.9605 0.169619 27.5931 0.543819 27.9993L2.01477 26.6442ZM13.1948 27.0954L13.5589 26.164C13.1025 25.9856 12.5839 26.1642 12.3343 26.5859L13.1948 27.0954ZM13.1459 27.1778L12.2855 26.6683L12.2854 26.6684L13.1459 27.1778ZM13.7648 16.6779L14.0704 17.6301L13.7648 16.6779ZM14.6883 1.40023L14.4196 2.36345L17.8134 3.31017L18.0821 2.34694L18.3508 1.38372L14.957 0.436999L14.6883 1.40023ZM19.5469 3.31948L18.7701 3.94919C22.4495 8.48812 24.8093 11.9638 26.815 16.3705L27.7252 15.9563L28.6353 15.542C26.5339 10.925 24.0627 7.30219 20.3238 2.68976L19.5469 3.31948ZM19.3562 14.9793L18.3623 15.0894C18.4837 16.186 18.8378 17.4847 19.6886 18.4082L20.4241 17.7306L21.1596 17.0531C20.7286 16.5852 20.4517 15.7862 20.3502 14.8693L19.3562 14.9793ZM17.9658 9.89295L17.1726 10.5019C17.4516 10.8652 17.6463 11.119 17.783 11.309C17.9341 11.5188 17.954 11.5706 17.9452 11.5483L18.8745 11.1791L19.8039 10.8098C19.7106 10.5751 19.551 10.3416 19.4062 10.1405C19.247 9.91945 19.0296 9.63642 18.759 9.28399L17.9658 9.89295ZM19.3562 14.9793L20.3502 14.8693C20.2181 13.6763 20.1179 12.772 20.0403 12.14C20.0015 11.8247 19.9671 11.5667 19.9359 11.3697C19.9116 11.2164 19.8737 10.9855 19.8039 10.8098L18.8745 11.1791L17.9452 11.5483C17.9176 11.4789 17.9279 11.4772 17.9605 11.6827C17.9861 11.8445 18.0172 12.0748 18.0552 12.384C18.131 13.001 18.2296 13.8906 18.3623 15.0894L19.3562 14.9793ZM10.7254 3.48112L9.9899 2.80356C9.476 3.36137 8.99682 3.87592 8.68584 4.36606C8.33874 4.91314 8.14151 5.51722 8.26736 6.23894L9.25249 6.06715L10.2376 5.89537C10.2187 5.78691 10.2187 5.68327 10.3746 5.43752C10.5667 5.13483 10.8963 4.77145 11.4608 4.15869L10.7254 3.48112ZM27.7252 15.9563L26.815 16.3705C27.6592 18.2253 28.2391 19.507 28.5262 20.5759C28.7985 21.5891 28.7823 22.326 28.4744 23.0978L29.4032 23.4684L30.332 23.839C30.8373 22.5725 30.8127 21.3779 30.4578 20.0569C30.1178 18.7916 29.4521 17.3365 28.6353 15.542L27.7252 15.9563ZM23.3714 27.225L23.6842 28.1748C25.3876 27.614 26.7995 27.1535 27.8736 26.5552C29.0124 25.9207 29.827 25.1047 30.332 23.839L29.4032 23.4684L28.4744 23.0978C28.166 23.8706 27.7042 24.3601 26.9002 24.808C26.0315 25.292 24.8342 25.6906 23.0587 26.2752L23.3714 27.225ZM13.9074 8.01808L14.0703 9.00472C14.7143 8.89841 15.1436 8.82815 15.459 8.79896C15.7984 8.76753 15.834 8.80511 15.7738 8.78031L16.1545 7.85563L16.5352 6.93094C16.1135 6.7573 15.654 6.77235 15.2746 6.80747C14.871 6.84484 14.3576 6.93023 13.7445 7.03144L13.9074 8.01808ZM12.9458 27.4434L12.2278 26.7473C10.962 28.0529 9.05426 28.7374 7.09417 28.7192C5.13429 28.701 3.2468 27.9816 2.01477 26.6442L1.2793 27.3218L0.543819 27.9993C2.21932 29.8181 4.67444 30.6968 7.0756 30.7191C9.47655 30.7414 11.9483 29.9088 13.6637 28.1395L12.9458 27.4434ZM23.3714 27.225L23.0587 26.2752C19.7309 27.3709 16.9045 27.472 13.5589 26.164L13.1948 27.0954L12.8306 28.0267C16.677 29.5305 19.9888 29.3916 23.6842 28.1748L23.3714 27.225ZM13.1459 27.1778L14.0064 27.6873L14.0553 27.6048L13.1948 27.0954L12.3343 26.5859L12.2855 26.6683L13.1459 27.1778ZM12.9458 27.4434L13.6637 28.1395C13.8042 27.9945 13.9165 27.8392 14.0065 27.6872L13.1459 27.1778L12.2854 26.6684C12.2621 26.7079 12.242 26.7327 12.2278 26.7473L12.9458 27.4434ZM20.4241 17.7306L20.9855 16.9031C19.4943 15.8915 16.5212 14.7429 13.4592 15.7258L13.7648 16.6779L14.0704 17.6301C16.3523 16.8977 18.6832 17.758 19.8627 18.5582L20.4241 17.7306ZM13.7648 16.6779L13.4592 15.7258C12.0021 16.1934 10.5774 17.1305 9.33055 18.7094L10.1154 19.3292L10.9002 19.9489C11.9151 18.6637 13.0133 17.9694 14.0704 17.6301L13.7648 16.6779ZM13.7648 16.6779L14.4509 15.9504C12.6188 14.2224 10.004 13.4195 7.4746 13.4466C4.94532 13.4737 2.35133 14.3326 0.57038 16.1227L1.2793 16.828L1.98821 17.5333C3.31659 16.1981 5.36172 15.4694 7.49603 15.4465C9.63019 15.4236 11.7035 16.1084 13.0787 17.4054L13.7648 16.6779ZM16.1545 7.85563L15.7738 8.78031C15.9017 8.83299 16.0929 8.99058 16.365 9.35072C16.4923 9.51924 16.6151 9.70095 16.7501 9.90125C16.8783 10.0914 17.024 10.3083 17.1726 10.5019L17.9658 9.89295L18.759 9.28399C18.6553 9.14884 18.5457 8.98677 18.4086 8.78337C18.2783 8.59013 18.1259 8.36373 17.9608 8.14519C17.6481 7.73121 17.186 7.19891 16.5352 6.93094L16.1545 7.85563ZM18.0821 2.34694L17.8134 3.31017C18.0392 3.37314 18.1685 3.41011 18.2642 3.44357C18.3485 3.47304 18.3667 3.48662 18.367 3.48679C18.3683 3.48768 18.3906 3.5015 18.456 3.57298C18.5285 3.65223 18.6182 3.76184 18.7701 3.94919L19.5469 3.31948L20.3238 2.68976C20.0695 2.37609 19.8153 2.04796 19.4741 1.82114C19.1278 1.59098 18.729 1.48921 18.3508 1.38372L18.0821 2.34694ZM14.6883 1.40023L14.957 0.436999C13.6857 0.0823702 12.6791 0.36191 11.8498 0.948721C11.1295 1.45837 10.4911 2.25957 9.9899 2.80356L10.7254 3.48112L11.4608 4.15869C12.1278 3.43473 12.5142 2.92862 13.0049 2.58137C13.3867 2.31129 13.7775 2.18435 14.4196 2.36345L14.6883 1.40023ZM9.25249 6.06715L8.26736 6.23894C8.5223 7.70097 9.83293 8.42 10.8772 8.74481C11.9737 9.08585 13.218 9.14544 14.0703 9.00472L13.9074 8.01808L13.7445 7.03144C13.2074 7.12012 12.2779 7.08596 11.4712 6.83505C10.6123 6.5679 10.2902 6.19677 10.2376 5.89537L9.25249 6.06715Z" fill="black" fill-opacity="0.2"/>
<path d="M0.57038 16.1227C0.180858 16.5142 0.182481 17.1474 0.574004 17.5369C0.965528 17.9265 1.59869 17.9248 1.98821 17.5333L0.57038 16.1227ZM14.6883 1.40023L14.957 0.436999V0.436999L14.6883 1.40023ZM18.0821 2.34694L18.3508 1.38372V1.38372L18.0821 2.34694ZM19.5469 3.31948L18.7701 3.94919V3.94919L19.5469 3.31948ZM27.7252 15.9563L26.815 16.3705L27.7252 15.9563ZM10.7254 3.48112L9.9899 2.80356V2.80356L10.7254 3.48112ZM13.9074 8.01808L13.7445 7.03144H13.7445L13.9074 8.01808ZM17.9658 9.89295L18.759 9.28399L18.759 9.28399L17.9658 9.89295ZM19.3562 14.9793L18.3623 15.0894V15.0894L19.3562 14.9793ZM20.4241 17.7306L19.8627 18.5582C20.283 18.8433 20.8502 18.7681 21.1817 18.3834C21.5132 17.9987 21.5037 17.4266 21.1596 17.0531L20.4241 17.7306ZM9.33055 18.7094C8.98828 19.1429 9.06219 19.7717 9.49562 20.114C9.92906 20.4562 10.5579 20.3823 10.9002 19.9489L9.33055 18.7094ZM9.25249 6.06715L8.26736 6.23894V6.23894L9.25249 6.06715ZM29.4032 23.4684L30.332 23.839L29.4032 23.4684ZM23.3714 27.225L23.6842 28.1748L23.3714 27.225ZM16.1545 7.85563L16.5352 6.93094L16.5352 6.93094L16.1545 7.85563ZM12.9458 27.4434L13.6637 28.1395L13.6637 28.1395L12.9458 27.4434ZM2.01477 26.6442C1.64058 26.238 1.00794 26.2121 0.601748 26.5863C0.195555 26.9605 0.169619 27.5931 0.543819 27.9993L2.01477 26.6442ZM13.1948 27.0954L13.5589 26.164C13.1025 25.9856 12.5839 26.1642 12.3343 26.5859L13.1948 27.0954ZM13.1459 27.1778L12.2855 26.6683L12.2854 26.6684L13.1459 27.1778ZM13.7648 16.6779L14.0704 17.6301L13.7648 16.6779ZM14.6883 1.40023L14.4196 2.36345L17.8134 3.31017L18.0821 2.34694L18.3508 1.38372L14.957 0.436999L14.6883 1.40023ZM19.5469 3.31948L18.7701 3.94919C22.4495 8.48812 24.8093 11.9638 26.815 16.3705L27.7252 15.9563L28.6353 15.542C26.5339 10.925 24.0627 7.30219 20.3238 2.68976L19.5469 3.31948ZM19.3562 14.9793L18.3623 15.0894C18.4837 16.186 18.8378 17.4847 19.6886 18.4082L20.4241 17.7306L21.1596 17.0531C20.7286 16.5852 20.4517 15.7862 20.3502 14.8693L19.3562 14.9793ZM17.9658 9.89295L17.1726 10.5019C17.4516 10.8652 17.6463 11.119 17.783 11.309C17.9341 11.5188 17.954 11.5706 17.9452 11.5483L18.8745 11.1791L19.8039 10.8098C19.7106 10.5751 19.551 10.3416 19.4062 10.1405C19.247 9.91945 19.0296 9.63642 18.759 9.28399L17.9658 9.89295ZM19.3562 14.9793L20.3502 14.8693C20.2181 13.6763 20.1179 12.772 20.0403 12.14C20.0015 11.8247 19.9671 11.5667 19.9359 11.3697C19.9116 11.2164 19.8737 10.9855 19.8039 10.8098L18.8745 11.1791L17.9452 11.5483C17.9176 11.4789 17.9279 11.4772 17.9605 11.6827C17.9861 11.8445 18.0172 12.0748 18.0552 12.384C18.131 13.001 18.2296 13.8906 18.3623 15.0894L19.3562 14.9793ZM10.7254 3.48112L9.9899 2.80356C9.476 3.36137 8.99682 3.87592 8.68584 4.36606C8.33874 4.91314 8.14151 5.51722 8.26736 6.23894L9.25249 6.06715L10.2376 5.89537C10.2187 5.78691 10.2187 5.68327 10.3746 5.43752C10.5667 5.13483 10.8963 4.77145 11.4608 4.15869L10.7254 3.48112ZM27.7252 15.9563L26.815 16.3705C27.6592 18.2253 28.2391 19.507 28.5262 20.5759C28.7985 21.5891 28.7823 22.326 28.4744 23.0978L29.4032 23.4684L30.332 23.839C30.8373 22.5725 30.8127 21.3779 30.4578 20.0569C30.1178 18.7916 29.4521 17.3365 28.6353 15.542L27.7252 15.9563ZM23.3714 27.225L23.6842 28.1748C25.3876 27.614 26.7995 27.1535 27.8736 26.5552C29.0124 25.9207 29.827 25.1047 30.332 23.839L29.4032 23.4684L28.4744 23.0978C28.166 23.8706 27.7042 24.3601 26.9002 24.808C26.0315 25.292 24.8342 25.6906 23.0587 26.2752L23.3714 27.225ZM13.9074 8.01808L14.0703 9.00472C14.7143 8.89841 15.1436 8.82815 15.459 8.79896C15.7984 8.76753 15.834 8.80511 15.7738 8.78031L16.1545 7.85563L16.5352 6.93094C16.1135 6.7573 15.654 6.77235 15.2746 6.80747C14.871 6.84484 14.3576 6.93023 13.7445 7.03144L13.9074 8.01808ZM12.9458 27.4434L12.2278 26.7473C10.962 28.0529 9.05426 28.7374 7.09417 28.7192C5.13429 28.701 3.2468 27.9816 2.01477 26.6442L1.2793 27.3218L0.543819 27.9993C2.21932 29.8181 4.67444 30.6968 7.0756 30.7191C9.47655 30.7414 11.9483 29.9088 13.6637 28.1395L12.9458 27.4434ZM23.3714 27.225L23.0587 26.2752C19.7309 27.3709 16.9045 27.472 13.5589 26.164L13.1948 27.0954L12.8306 28.0267C16.677 29.5305 19.9888 29.3916 23.6842 28.1748L23.3714 27.225ZM13.1459 27.1778L14.0064 27.6873L14.0553 27.6048L13.1948 27.0954L12.3343 26.5859L12.2855 26.6683L13.1459 27.1778ZM12.9458 27.4434L13.6637 28.1395C13.8042 27.9945 13.9165 27.8392 14.0065 27.6872L13.1459 27.1778L12.2854 26.6684C12.2621 26.7079 12.242 26.7327 12.2278 26.7473L12.9458 27.4434ZM20.4241 17.7306L20.9855 16.9031C19.4943 15.8915 16.5212 14.7429 13.4592 15.7258L13.7648 16.6779L14.0704 17.6301C16.3523 16.8977 18.6832 17.758 19.8627 18.5582L20.4241 17.7306ZM13.7648 16.6779L13.4592 15.7258C12.0021 16.1934 10.5774 17.1305 9.33055 18.7094L10.1154 19.3292L10.9002 19.9489C11.9151 18.6637 13.0133 17.9694 14.0704 17.6301L13.7648 16.6779ZM13.7648 16.6779L14.4509 15.9504C12.6188 14.2224 10.004 13.4195 7.4746 13.4466C4.94532 13.4737 2.35133 14.3326 0.57038 16.1227L1.2793 16.828L1.98821 17.5333C3.31659 16.1981 5.36172 15.4694 7.49603 15.4465C9.63019 15.4236 11.7035 16.1084 13.0787 17.4054L13.7648 16.6779ZM16.1545 7.85563L15.7738 8.78031C15.9017 8.83299 16.0929 8.99058 16.365 9.35072C16.4923 9.51924 16.6151 9.70095 16.7501 9.90125C16.8783 10.0914 17.024 10.3083 17.1726 10.5019L17.9658 9.89295L18.759 9.28399C18.6553 9.14884 18.5457 8.98677 18.4086 8.78337C18.2783 8.59013 18.1259 8.36373 17.9608 8.14519C17.6481 7.73121 17.186 7.19891 16.5352 6.93094L16.1545 7.85563ZM18.0821 2.34694L17.8134 3.31017C18.0392 3.37314 18.1685 3.41011 18.2642 3.44357C18.3485 3.47304 18.3667 3.48662 18.367 3.48679C18.3683 3.48768 18.3906 3.5015 18.456 3.57298C18.5285 3.65223 18.6182 3.76184 18.7701 3.94919L19.5469 3.31948L20.3238 2.68976C20.0695 2.37609 19.8153 2.04796 19.4741 1.82114C19.1278 1.59098 18.729 1.48921 18.3508 1.38372L18.0821 2.34694ZM14.6883 1.40023L14.957 0.436999C13.6857 0.0823702 12.6791 0.36191 11.8498 0.948721C11.1295 1.45837 10.4911 2.25957 9.9899 2.80356L10.7254 3.48112L11.4608 4.15869C12.1278 3.43473 12.5142 2.92862 13.0049 2.58137C13.3867 2.31129 13.7775 2.18435 14.4196 2.36345L14.6883 1.40023ZM9.25249 6.06715L8.26736 6.23894C8.5223 7.70097 9.83293 8.42 10.8772 8.74481C11.9737 9.08585 13.218 9.14544 14.0703 9.00472L13.9074 8.01808L13.7445 7.03144C13.2074 7.12012 12.2779 7.08596 11.4712 6.83505C10.6123 6.5679 10.2902 6.19677 10.2376 5.89537L9.25249 6.06715Z" fill="black" fill-opacity="0.2"/>
<defs>
<linearGradient id="paint0_linear_2799_43301" x1="1.2793" y1="15.4999" x2="29.7186" y2="15.4999" gradientUnits="userSpaceOnUse">
<stop stop-color="#B57FE6"/>
<stop offset="1" stop-color="#6645AB"/>
</linearGradient>
</defs>
</svg>
