<svg width="25" height="31" viewBox="0 0 25 31" fill="none" xmlns="http://www.w3.org/2000/svg">
<path d="M18.9427 3.41667C18.9427 4.75136 17.8607 5.83333 16.526 5.83333C15.1914 5.83333 14.1094 4.75136 14.1094 3.41667C14.1094 2.08198 15.1914 1 16.526 1C17.8607 1 18.9427 2.08198 18.9427 3.41667Z" stroke="url(#paint0_linear_2799_43278)" stroke-width="2"/>
<path d="M18.9427 3.41667C18.9427 4.75136 17.8607 5.83333 16.526 5.83333C15.1914 5.83333 14.1094 4.75136 14.1094 3.41667C14.1094 2.08198 15.1914 1 16.526 1C17.8607 1 18.9427 2.08198 18.9427 3.41667Z" stroke="black" stroke-opacity="0.2" stroke-width="2"/>
<path d="M18.9427 3.41667C18.9427 4.75136 17.8607 5.83333 16.526 5.83333C15.1914 5.83333 14.1094 4.75136 14.1094 3.41667C14.1094 2.08198 15.1914 1 16.526 1C17.8607 1 18.9427 2.08198 18.9427 3.41667Z" stroke="black" stroke-opacity="0.2" stroke-width="2"/>
<path d="M18.9427 3.41667C18.9427 4.75136 17.8607 5.83333 16.526 5.83333C15.1914 5.83333 14.1094 4.75136 14.1094 3.41667C14.1094 2.08198 15.1914 1 16.526 1C17.8607 1 18.9427 2.08198 18.9427 3.41667Z" stroke="black" stroke-opacity="0.2" stroke-width="2"/>
<path d="M18.9427 3.41667C18.9427 4.75136 17.8607 5.83333 16.526 5.83333C15.1914 5.83333 14.1094 4.75136 14.1094 3.41667C14.1094 2.08198 15.1914 1 16.526 1C17.8607 1 18.9427 2.08198 18.9427 3.41667Z" stroke="black" stroke-opacity="0.2" stroke-width="2"/>
<path d="M1.2207 15.4999L3.59905 11.7529C4.01908 11.0911 4.2291 10.7603 4.50336 10.4914C4.77762 10.2225 5.10635 10.0252 5.76381 9.63062L7.24882 8.73935C8.63841 7.90535 9.3332 7.48835 10.1015 7.4476C10.8697 7.40685 11.601 7.74821 13.0635 8.43092L15.7943 9.70566C16.3956 9.98637 16.6963 10.1267 16.9594 10.3231C17.1459 10.4623 17.3177 10.622 17.472 10.7994C17.6896 11.0497 17.8589 11.3461 18.1975 11.9387C18.7932 12.9816 19.0911 13.503 19.5112 13.8704C19.8077 14.1296 20.146 14.3308 20.5101 14.4644C21.0262 14.6538 21.6052 14.6538 22.7631 14.6538H23.7763" stroke="url(#paint1_linear_2799_43278)" stroke-width="2" stroke-linecap="round" stroke-linejoin="round"/>
<path d="M1.2207 15.4999L3.59905 11.7529C4.01908 11.0911 4.2291 10.7603 4.50336 10.4914C4.77762 10.2225 5.10635 10.0252 5.76381 9.63062L7.24882 8.73935C8.63841 7.90535 9.3332 7.48835 10.1015 7.4476C10.8697 7.40685 11.601 7.74821 13.0635 8.43092L15.7943 9.70566C16.3956 9.98637 16.6963 10.1267 16.9594 10.3231C17.1459 10.4623 17.3177 10.622 17.472 10.7994C17.6896 11.0497 17.8589 11.3461 18.1975 11.9387C18.7932 12.9816 19.0911 13.503 19.5112 13.8704C19.8077 14.1296 20.146 14.3308 20.5101 14.4644C21.0262 14.6538 21.6052 14.6538 22.7631 14.6538H23.7763" stroke="black" stroke-opacity="0.2" stroke-width="2" stroke-linecap="round" stroke-linejoin="round"/>
<path d="M1.2207 15.4999L3.59905 11.7529C4.01908 11.0911 4.2291 10.7603 4.50336 10.4914C4.77762 10.2225 5.10635 10.0252 5.76381 9.63062L7.24882 8.73935C8.63841 7.90535 9.3332 7.48835 10.1015 7.4476C10.8697 7.40685 11.601 7.74821 13.0635 8.43092L15.7943 9.70566C16.3956 9.98637 16.6963 10.1267 16.9594 10.3231C17.1459 10.4623 17.3177 10.622 17.472 10.7994C17.6896 11.0497 17.8589 11.3461 18.1975 11.9387C18.7932 12.9816 19.0911 13.503 19.5112 13.8704C19.8077 14.1296 20.146 14.3308 20.5101 14.4644C21.0262 14.6538 21.6052 14.6538 22.7631 14.6538H23.7763" stroke="black" stroke-opacity="0.2" stroke-width="2" stroke-linecap="round" stroke-linejoin="round"/>
<path d="M1.2207 15.4999L3.59905 11.7529C4.01908 11.0911 4.2291 10.7603 4.50336 10.4914C4.77762 10.2225 5.10635 10.0252 5.76381 9.63062L7.24882 8.73935C8.63841 7.90535 9.3332 7.48835 10.1015 7.4476C10.8697 7.40685 11.601 7.74821 13.0635 8.43092L15.7943 9.70566C16.3956 9.98637 16.6963 10.1267 16.9594 10.3231C17.1459 10.4623 17.3177 10.622 17.472 10.7994C17.6896 11.0497 17.8589 11.3461 18.1975 11.9387C18.7932 12.9816 19.0911 13.503 19.5112 13.8704C19.8077 14.1296 20.146 14.3308 20.5101 14.4644C21.0262 14.6538 21.6052 14.6538 22.7631 14.6538H23.7763" stroke="black" stroke-opacity="0.2" stroke-width="2" stroke-linecap="round" stroke-linejoin="round"/>
<path d="M1.2207 15.4999L3.59905 11.7529C4.01908 11.0911 4.2291 10.7603 4.50336 10.4914C4.77762 10.2225 5.10635 10.0252 5.76381 9.63062L7.24882 8.73935C8.63841 7.90535 9.3332 7.48835 10.1015 7.4476C10.8697 7.40685 11.601 7.74821 13.0635 8.43092L15.7943 9.70566C16.3956 9.98637 16.6963 10.1267 16.9594 10.3231C17.1459 10.4623 17.3177 10.622 17.472 10.7994C17.6896 11.0497 17.8589 11.3461 18.1975 11.9387C18.7932 12.9816 19.0911 13.503 19.5112 13.8704C19.8077 14.1296 20.146 14.3308 20.5101 14.4644C21.0262 14.6538 21.6052 14.6538 22.7631 14.6538H23.7763" stroke="black" stroke-opacity="0.2" stroke-width="2" stroke-linecap="round" stroke-linejoin="round"/>
<path d="M11.6942 8.25L6.05534 18.7222M6.05534 18.7222L7.97676 21.4122C9.17218 23.0858 8.90365 25.3931 7.35585 26.7475L3.63867 30M6.05534 18.7222H11.6942M20.5553 25.1667L16.922 20.3222C16.1666 19.315 14.981 18.7222 13.722 18.7222H11.6942M11.6942 18.7222L17.3331 10.6667" stroke="url(#paint2_linear_2799_43278)" stroke-width="2" stroke-linecap="round" stroke-linejoin="round"/>
<path d="M11.6942 8.25L6.05534 18.7222M6.05534 18.7222L7.97676 21.4122C9.17218 23.0858 8.90365 25.3931 7.35585 26.7475L3.63867 30M6.05534 18.7222H11.6942M20.5553 25.1667L16.922 20.3222C16.1666 19.315 14.981 18.7222 13.722 18.7222H11.6942M11.6942 18.7222L17.3331 10.6667" stroke="black" stroke-opacity="0.2" stroke-width="2" stroke-linecap="round" stroke-linejoin="round"/>
<path d="M11.6942 8.25L6.05534 18.7222M6.05534 18.7222L7.97676 21.4122C9.17218 23.0858 8.90365 25.3931 7.35585 26.7475L3.63867 30M6.05534 18.7222H11.6942M20.5553 25.1667L16.922 20.3222C16.1666 19.315 14.981 18.7222 13.722 18.7222H11.6942M11.6942 18.7222L17.3331 10.6667" stroke="black" stroke-opacity="0.2" stroke-width="2" stroke-linecap="round" stroke-linejoin="round"/>
<path d="M11.6942 8.25L6.05534 18.7222M6.05534 18.7222L7.97676 21.4122C9.17218 23.0858 8.90365 25.3931 7.35585 26.7475L3.63867 30M6.05534 18.7222H11.6942M20.5553 25.1667L16.922 20.3222C16.1666 19.315 14.981 18.7222 13.722 18.7222H11.6942M11.6942 18.7222L17.3331 10.6667" stroke="black" stroke-opacity="0.2" stroke-width="2" stroke-linecap="round" stroke-linejoin="round"/>
<path d="M11.6942 8.25L6.05534 18.7222M6.05534 18.7222L7.97676 21.4122C9.17218 23.0858 8.90365 25.3931 7.35585 26.7475L3.63867 30M6.05534 18.7222H11.6942M20.5553 25.1667L16.922 20.3222C16.1666 19.315 14.981 18.7222 13.722 18.7222H11.6942M11.6942 18.7222L17.3331 10.6667" stroke="black" stroke-opacity="0.2" stroke-width="2" stroke-linecap="round" stroke-linejoin="round"/>
<defs>
<linearGradient id="paint0_linear_2799_43278" x1="14.1094" y1="3.41667" x2="18.9427" y2="3.41667" gradientUnits="userSpaceOnUse">
<stop stop-color="#B57FE6"/>
<stop offset="1" stop-color="#6645AB"/>
</linearGradient>
<linearGradient id="paint1_linear_2799_43278" x1="1.2207" y1="11.4721" x2="23.7763" y2="11.4721" gradientUnits="userSpaceOnUse">
<stop stop-color="#B57FE6"/>
<stop offset="1" stop-color="#6645AB"/>
</linearGradient>
<linearGradient id="paint2_linear_2799_43278" x1="3.63867" y1="19.125" x2="20.5553" y2="19.125" gradientUnits="userSpaceOnUse">
<stop stop-color="#B57FE6"/>
<stop offset="1" stop-color="#6645AB"/>
</linearGradient>
</defs>
</svg>
