<svg width="26" height="26" viewBox="0 0 26 26" fill="none" xmlns="http://www.w3.org/2000/svg">
<g clip-path="url(#clip0_3985_93869)">
<path d="M26 19.5C26 20.0991 25.5147 20.5833 24.9167 20.5833V22.75C24.9167 23.3491 24.4313 23.8333 23.8333 23.8333C23.2353 23.8333 22.75 23.3491 22.75 22.75V16.25C22.75 15.6509 23.2353 15.1667 23.8333 15.1667C24.4313 15.1667 24.9167 15.6509 24.9167 16.25V18.4167C25.5147 18.4167 26 18.9009 26 19.5ZM20.5833 13C19.9853 13 19.5 13.4843 19.5 14.0833V18.4167H6.5V14.0833C6.5 13.4843 6.01467 13 5.41667 13C4.81867 13 4.33333 13.4843 4.33333 14.0833V24.9167C4.33333 25.5158 4.81867 26 5.41667 26C6.01467 26 6.5 25.5158 6.5 24.9167V20.5833H19.5V24.9167C19.5 25.5158 19.9853 26 20.5833 26C21.1813 26 21.6667 25.5158 21.6667 24.9167V14.0833C21.6667 13.4843 21.1813 13 20.5833 13ZM2.16667 15.1667C1.56867 15.1667 1.08333 15.6509 1.08333 16.25V18.4167C0.485333 18.4167 0 18.9009 0 19.5C0 20.0991 0.485333 20.5833 1.08333 20.5833V22.75C1.08333 23.3491 1.56867 23.8333 2.16667 23.8333C2.76467 23.8333 3.25 23.3491 3.25 22.75V16.25C3.25 15.6509 2.76467 15.1667 2.16667 15.1667ZM7.45225 9.99158C7.05575 9.4575 6.93875 8.78475 7.13158 8.14775L9.44017 1.46033C9.74133 0.587167 10.5647 0 11.4887 0H13.5406C14.2545 0 14.9218 0.351 15.3259 0.93925C15.73 1.5275 15.8188 2.27608 15.5632 2.94342L15.0724 4.33333H16.8924C17.654 4.33333 18.3506 4.75042 18.7113 5.421C19.0721 6.09158 19.0331 6.903 18.6128 7.53783L13.9956 14.2935C13.5991 14.8688 12.9838 15.1818 12.3403 15.1818C12.0467 15.1818 11.7466 15.1158 11.4595 14.9803C10.5419 14.5481 10.0956 13.5644 10.3751 12.5894L10.9579 10.8322H9.126C8.45975 10.8322 7.84983 10.5257 7.45333 9.9905L7.45225 9.99158ZM9.23217 8.70133L12.4583 8.66775C12.8061 8.66775 13.1333 8.83458 13.3369 9.11733C13.5406 9.40008 13.5958 9.763 13.4864 10.0923L12.7703 12.246L16.7343 6.44692L13.5417 6.5C13.1896 6.5 12.8603 6.32992 12.6577 6.04175C12.454 5.75467 12.4042 5.38742 12.5212 5.05592L13.5319 2.19375L11.4898 2.16667L9.23325 8.70025L9.23217 8.70133Z" fill="white"/>
</g>
<defs>
<clipPath id="clip0_3985_93869">
<rect width="26" height="26" fill="white"/>
</clipPath>
</defs>
</svg>
