<svg width="35" height="33" viewBox="0 0 35 33" fill="none" xmlns="http://www.w3.org/2000/svg">
<path d="M27.3996 1.6499V9.8999M7.59961 1.6499V9.8999" stroke="url(#paint0_linear_2799_43282)" stroke-width="2" stroke-linecap="round" stroke-linejoin="round"/>
<path d="M27.3996 1.6499V9.8999M7.59961 1.6499V9.8999" stroke="black" stroke-opacity="0.2" stroke-width="2" stroke-linecap="round" stroke-linejoin="round"/>
<path d="M27.3996 1.6499V9.8999M7.59961 1.6499V9.8999" stroke="black" stroke-opacity="0.2" stroke-width="2" stroke-linecap="round" stroke-linejoin="round"/>
<path d="M27.3996 1.6499V9.8999M7.59961 1.6499V9.8999" stroke="black" stroke-opacity="0.2" stroke-width="2" stroke-linecap="round" stroke-linejoin="round"/>
<path d="M27.3996 1.6499V9.8999M7.59961 1.6499V9.8999" stroke="black" stroke-opacity="0.2" stroke-width="2" stroke-linecap="round" stroke-linejoin="round"/>
<path d="M31.525 3.2998V5.7748M31.525 5.7748V8.2498M31.525 5.7748H34M3.475 3.2998V5.7748M3.475 5.7748V8.2498M3.475 5.7748H1" stroke="url(#paint1_linear_2799_43282)" stroke-width="2" stroke-linecap="round" stroke-linejoin="round"/>
<path d="M31.525 3.2998V5.7748M31.525 5.7748V8.2498M31.525 5.7748H34M3.475 3.2998V5.7748M3.475 5.7748V8.2498M3.475 5.7748H1" stroke="black" stroke-opacity="0.2" stroke-width="2" stroke-linecap="round" stroke-linejoin="round"/>
<path d="M31.525 3.2998V5.7748M31.525 5.7748V8.2498M31.525 5.7748H34M3.475 3.2998V5.7748M3.475 5.7748V8.2498M3.475 5.7748H1" stroke="black" stroke-opacity="0.2" stroke-width="2" stroke-linecap="round" stroke-linejoin="round"/>
<path d="M31.525 3.2998V5.7748M31.525 5.7748V8.2498M31.525 5.7748H34M3.475 3.2998V5.7748M3.475 5.7748V8.2498M3.475 5.7748H1" stroke="black" stroke-opacity="0.2" stroke-width="2" stroke-linecap="round" stroke-linejoin="round"/>
<path d="M31.525 3.2998V5.7748M31.525 5.7748V8.2498M31.525 5.7748H34M3.475 3.2998V5.7748M3.475 5.7748V8.2498M3.475 5.7748H1" stroke="black" stroke-opacity="0.2" stroke-width="2" stroke-linecap="round" stroke-linejoin="round"/>
<path d="M27.4004 5.7749L7.60039 5.7749" stroke="url(#paint2_linear_2799_43282)" stroke-width="2" stroke-linecap="round" stroke-linejoin="round"/>
<path d="M27.4004 5.7749L7.60039 5.7749" stroke="black" stroke-opacity="0.2" stroke-width="2" stroke-linecap="round" stroke-linejoin="round"/>
<path d="M27.4004 5.7749L7.60039 5.7749" stroke="black" stroke-opacity="0.2" stroke-width="2" stroke-linecap="round" stroke-linejoin="round"/>
<path d="M27.4004 5.7749L7.60039 5.7749" stroke="black" stroke-opacity="0.2" stroke-width="2" stroke-linecap="round" stroke-linejoin="round"/>
<path d="M27.4004 5.7749L7.60039 5.7749" stroke="black" stroke-opacity="0.2" stroke-width="2" stroke-linecap="round" stroke-linejoin="round"/>
<path d="M14.1992 5.7749V13.1999M20.7992 5.7749V13.1999" stroke="url(#paint3_linear_2799_43282)" stroke-width="2" stroke-linecap="round" stroke-linejoin="round"/>
<path d="M14.1992 5.7749V13.1999M20.7992 5.7749V13.1999" stroke="black" stroke-opacity="0.2" stroke-width="2" stroke-linecap="round" stroke-linejoin="round"/>
<path d="M14.1992 5.7749V13.1999M20.7992 5.7749V13.1999" stroke="black" stroke-opacity="0.2" stroke-width="2" stroke-linecap="round" stroke-linejoin="round"/>
<path d="M14.1992 5.7749V13.1999M20.7992 5.7749V13.1999" stroke="black" stroke-opacity="0.2" stroke-width="2" stroke-linecap="round" stroke-linejoin="round"/>
<path d="M14.1992 5.7749V13.1999M20.7992 5.7749V13.1999" stroke="black" stroke-opacity="0.2" stroke-width="2" stroke-linecap="round" stroke-linejoin="round"/>
<path d="M28.9695 23.1002H6.05222M21.221 13.2002H14.5401C12.8776 13.2002 12.2617 13.4382 11.3476 14.8374L6.37581 22.4473C6.07026 22.9149 5.94922 23.2879 5.94922 23.8561C5.94922 27.409 7.38989 28.0502 10.6466 28.0502H24.2591C27.6194 28.0502 29.0492 27.4175 29.0492 23.7733C29.0492 23.2681 28.9555 22.9328 28.7121 22.4982L24.5268 15.0244C23.6455 13.4507 23.0118 13.2002 21.221 13.2002Z" stroke="url(#paint4_linear_2799_43282)" stroke-width="2" stroke-linecap="round" stroke-linejoin="round"/>
<path d="M28.9695 23.1002H6.05222M21.221 13.2002H14.5401C12.8776 13.2002 12.2617 13.4382 11.3476 14.8374L6.37581 22.4473C6.07026 22.9149 5.94922 23.2879 5.94922 23.8561C5.94922 27.409 7.38989 28.0502 10.6466 28.0502H24.2591C27.6194 28.0502 29.0492 27.4175 29.0492 23.7733C29.0492 23.2681 28.9555 22.9328 28.7121 22.4982L24.5268 15.0244C23.6455 13.4507 23.0118 13.2002 21.221 13.2002Z" stroke="black" stroke-opacity="0.2" stroke-width="2" stroke-linecap="round" stroke-linejoin="round"/>
<path d="M28.9695 23.1002H6.05222M21.221 13.2002H14.5401C12.8776 13.2002 12.2617 13.4382 11.3476 14.8374L6.37581 22.4473C6.07026 22.9149 5.94922 23.2879 5.94922 23.8561C5.94922 27.409 7.38989 28.0502 10.6466 28.0502H24.2591C27.6194 28.0502 29.0492 27.4175 29.0492 23.7733C29.0492 23.2681 28.9555 22.9328 28.7121 22.4982L24.5268 15.0244C23.6455 13.4507 23.0118 13.2002 21.221 13.2002Z" stroke="black" stroke-opacity="0.2" stroke-width="2" stroke-linecap="round" stroke-linejoin="round"/>
<path d="M28.9695 23.1002H6.05222M21.221 13.2002H14.5401C12.8776 13.2002 12.2617 13.4382 11.3476 14.8374L6.37581 22.4473C6.07026 22.9149 5.94922 23.2879 5.94922 23.8561C5.94922 27.409 7.38989 28.0502 10.6466 28.0502H24.2591C27.6194 28.0502 29.0492 27.4175 29.0492 23.7733C29.0492 23.2681 28.9555 22.9328 28.7121 22.4982L24.5268 15.0244C23.6455 13.4507 23.0118 13.2002 21.221 13.2002Z" stroke="black" stroke-opacity="0.2" stroke-width="2" stroke-linecap="round" stroke-linejoin="round"/>
<path d="M28.9695 23.1002H6.05222M21.221 13.2002H14.5401C12.8776 13.2002 12.2617 13.4382 11.3476 14.8374L6.37581 22.4473C6.07026 22.9149 5.94922 23.2879 5.94922 23.8561C5.94922 27.409 7.38989 28.0502 10.6466 28.0502H24.2591C27.6194 28.0502 29.0492 27.4175 29.0492 23.7733C29.0492 23.2681 28.9555 22.9328 28.7121 22.4982L24.5268 15.0244C23.6455 13.4507 23.0118 13.2002 21.221 13.2002Z" stroke="black" stroke-opacity="0.2" stroke-width="2" stroke-linecap="round" stroke-linejoin="round"/>
<path d="M24.1004 28.0498V31.3498M10.9004 28.0498V31.3498" stroke="url(#paint5_linear_2799_43282)" stroke-width="2" stroke-linecap="round" stroke-linejoin="round"/>
<path d="M24.1004 28.0498V31.3498M10.9004 28.0498V31.3498" stroke="black" stroke-opacity="0.2" stroke-width="2" stroke-linecap="round" stroke-linejoin="round"/>
<path d="M24.1004 28.0498V31.3498M10.9004 28.0498V31.3498" stroke="black" stroke-opacity="0.2" stroke-width="2" stroke-linecap="round" stroke-linejoin="round"/>
<path d="M24.1004 28.0498V31.3498M10.9004 28.0498V31.3498" stroke="black" stroke-opacity="0.2" stroke-width="2" stroke-linecap="round" stroke-linejoin="round"/>
<path d="M24.1004 28.0498V31.3498M10.9004 28.0498V31.3498" stroke="black" stroke-opacity="0.2" stroke-width="2" stroke-linecap="round" stroke-linejoin="round"/>
<defs>
<linearGradient id="paint0_linear_2799_43282" x1="7.59961" y1="5.7749" x2="27.3996" y2="5.7749" gradientUnits="userSpaceOnUse">
<stop stop-color="#B57FE6"/>
<stop offset="1" stop-color="#6645AB"/>
</linearGradient>
<linearGradient id="paint1_linear_2799_43282" x1="1" y1="5.7748" x2="34" y2="5.7748" gradientUnits="userSpaceOnUse">
<stop stop-color="#B57FE6"/>
<stop offset="1" stop-color="#6645AB"/>
</linearGradient>
<linearGradient id="paint2_linear_2799_43282" x1="27.4004" y1="6.2749" x2="7.60039" y2="6.2749" gradientUnits="userSpaceOnUse">
<stop stop-color="#B57FE6"/>
<stop offset="1" stop-color="#6645AB"/>
</linearGradient>
<linearGradient id="paint3_linear_2799_43282" x1="14.1992" y1="9.4874" x2="20.7992" y2="9.4874" gradientUnits="userSpaceOnUse">
<stop stop-color="#B57FE6"/>
<stop offset="1" stop-color="#6645AB"/>
</linearGradient>
<linearGradient id="paint4_linear_2799_43282" x1="5.94922" y1="20.6252" x2="29.0492" y2="20.6252" gradientUnits="userSpaceOnUse">
<stop stop-color="#B57FE6"/>
<stop offset="1" stop-color="#6645AB"/>
</linearGradient>
<linearGradient id="paint5_linear_2799_43282" x1="10.9004" y1="29.6998" x2="24.1004" y2="29.6998" gradientUnits="userSpaceOnUse">
<stop stop-color="#B57FE6"/>
<stop offset="1" stop-color="#6645AB"/>
</linearGradient>
</defs>
</svg>
