<svg width="37" height="29" viewBox="0 0 37 29" fill="none" xmlns="http://www.w3.org/2000/svg">
<path d="M2.75 1L2.75 28M34.2488 1V28" stroke="url(#paint0_linear_2799_43272)" stroke-width="2" stroke-linecap="round" stroke-linejoin="round"/>
<path d="M2.75 1L2.75 28M34.2488 1V28" stroke="black" stroke-opacity="0.2" stroke-width="2" stroke-linecap="round" stroke-linejoin="round"/>
<path d="M2.75 1L2.75 28M34.2488 1V28" stroke="black" stroke-opacity="0.2" stroke-width="2" stroke-linecap="round" stroke-linejoin="round"/>
<path d="M2.75 1L2.75 28M34.2488 1V28" stroke="black" stroke-opacity="0.2" stroke-width="2" stroke-linecap="round" stroke-linejoin="round"/>
<path d="M2.75 1L2.75 28M34.2488 1V28" stroke="black" stroke-opacity="0.2" stroke-width="2" stroke-linecap="round" stroke-linejoin="round"/>
<path d="M35.998 5.5L0.999349 5.5" stroke="url(#paint1_linear_2799_43272)" stroke-width="2" stroke-linecap="round" stroke-linejoin="round"/>
<path d="M35.998 5.5L0.999349 5.5" stroke="black" stroke-opacity="0.2" stroke-width="2" stroke-linecap="round" stroke-linejoin="round"/>
<path d="M35.998 5.5L0.999349 5.5" stroke="black" stroke-opacity="0.2" stroke-width="2" stroke-linecap="round" stroke-linejoin="round"/>
<path d="M35.998 5.5L0.999349 5.5" stroke="black" stroke-opacity="0.2" stroke-width="2" stroke-linecap="round" stroke-linejoin="round"/>
<path d="M35.998 5.5L0.999349 5.5" stroke="black" stroke-opacity="0.2" stroke-width="2" stroke-linecap="round" stroke-linejoin="round"/>
<path d="M24.6229 11.5C26.5558 11.5 28.1228 12.954 28.1228 14.7476C28.1228 15.1725 28.0348 15.5784 27.8748 15.9505C27.36 17.1479 21.7692 16.8765 21.371 15.9505C21.211 15.5784 21.123 15.1725 21.123 14.7476C21.123 12.954 22.69 11.5 24.6229 11.5Z" stroke="url(#paint2_linear_2799_43272)" stroke-width="2" stroke-linejoin="round"/>
<path d="M24.6229 11.5C26.5558 11.5 28.1228 12.954 28.1228 14.7476C28.1228 15.1725 28.0348 15.5784 27.8748 15.9505C27.36 17.1479 21.7692 16.8765 21.371 15.9505C21.211 15.5784 21.123 15.1725 21.123 14.7476C21.123 12.954 22.69 11.5 24.6229 11.5Z" stroke="black" stroke-opacity="0.2" stroke-width="2" stroke-linejoin="round"/>
<path d="M24.6229 11.5C26.5558 11.5 28.1228 12.954 28.1228 14.7476C28.1228 15.1725 28.0348 15.5784 27.8748 15.9505C27.36 17.1479 21.7692 16.8765 21.371 15.9505C21.211 15.5784 21.123 15.1725 21.123 14.7476C21.123 12.954 22.69 11.5 24.6229 11.5Z" stroke="black" stroke-opacity="0.2" stroke-width="2" stroke-linejoin="round"/>
<path d="M24.6229 11.5C26.5558 11.5 28.1228 12.954 28.1228 14.7476C28.1228 15.1725 28.0348 15.5784 27.8748 15.9505C27.36 17.1479 21.7692 16.8765 21.371 15.9505C21.211 15.5784 21.123 15.1725 21.123 14.7476C21.123 12.954 22.69 11.5 24.6229 11.5Z" stroke="black" stroke-opacity="0.2" stroke-width="2" stroke-linejoin="round"/>
<path d="M24.6229 11.5C26.5558 11.5 28.1228 12.954 28.1228 14.7476C28.1228 15.1725 28.0348 15.5784 27.8748 15.9505C27.36 17.1479 21.7692 16.8765 21.371 15.9505C21.211 15.5784 21.123 15.1725 21.123 14.7476C21.123 12.954 22.69 11.5 24.6229 11.5Z" stroke="black" stroke-opacity="0.2" stroke-width="2" stroke-linejoin="round"/>
<path d="M12.3749 11.5C14.3078 11.5 15.8747 12.954 15.8747 14.7476C15.8747 15.1725 15.7868 15.5784 15.6268 15.9505C15.1119 17.1479 9.52114 16.8765 9.12294 15.9505C8.96297 15.5784 8.875 15.1725 8.875 14.7476C8.875 12.954 10.4419 11.5 12.3749 11.5Z" stroke="url(#paint3_linear_2799_43272)" stroke-width="2" stroke-linejoin="round"/>
<path d="M12.3749 11.5C14.3078 11.5 15.8747 12.954 15.8747 14.7476C15.8747 15.1725 15.7868 15.5784 15.6268 15.9505C15.1119 17.1479 9.52114 16.8765 9.12294 15.9505C8.96297 15.5784 8.875 15.1725 8.875 14.7476C8.875 12.954 10.4419 11.5 12.3749 11.5Z" stroke="black" stroke-opacity="0.2" stroke-width="2" stroke-linejoin="round"/>
<path d="M12.3749 11.5C14.3078 11.5 15.8747 12.954 15.8747 14.7476C15.8747 15.1725 15.7868 15.5784 15.6268 15.9505C15.1119 17.1479 9.52114 16.8765 9.12294 15.9505C8.96297 15.5784 8.875 15.1725 8.875 14.7476C8.875 12.954 10.4419 11.5 12.3749 11.5Z" stroke="black" stroke-opacity="0.2" stroke-width="2" stroke-linejoin="round"/>
<path d="M12.3749 11.5C14.3078 11.5 15.8747 12.954 15.8747 14.7476C15.8747 15.1725 15.7868 15.5784 15.6268 15.9505C15.1119 17.1479 9.52114 16.8765 9.12294 15.9505C8.96297 15.5784 8.875 15.1725 8.875 14.7476C8.875 12.954 10.4419 11.5 12.3749 11.5Z" stroke="black" stroke-opacity="0.2" stroke-width="2" stroke-linejoin="round"/>
<path d="M12.3749 11.5C14.3078 11.5 15.8747 12.954 15.8747 14.7476C15.8747 15.1725 15.7868 15.5784 15.6268 15.9505C15.1119 17.1479 9.52114 16.8765 9.12294 15.9505C8.96297 15.5784 8.875 15.1725 8.875 14.7476C8.875 12.954 10.4419 11.5 12.3749 11.5Z" stroke="black" stroke-opacity="0.2" stroke-width="2" stroke-linejoin="round"/>
<path d="M12.375 11.5V5.5M24.6245 11.5V5.5" stroke="url(#paint4_linear_2799_43272)" stroke-width="2" stroke-linecap="round" stroke-linejoin="round"/>
<path d="M12.375 11.5V5.5M24.6245 11.5V5.5" stroke="black" stroke-opacity="0.2" stroke-width="2" stroke-linecap="round" stroke-linejoin="round"/>
<path d="M12.375 11.5V5.5M24.6245 11.5V5.5" stroke="black" stroke-opacity="0.2" stroke-width="2" stroke-linecap="round" stroke-linejoin="round"/>
<path d="M12.375 11.5V5.5M24.6245 11.5V5.5" stroke="black" stroke-opacity="0.2" stroke-width="2" stroke-linecap="round" stroke-linejoin="round"/>
<path d="M12.375 11.5V5.5M24.6245 11.5V5.5" stroke="black" stroke-opacity="0.2" stroke-width="2" stroke-linecap="round" stroke-linejoin="round"/>
<defs>
<linearGradient id="paint0_linear_2799_43272" x1="2.75" y1="14.5" x2="34.2488" y2="14.5" gradientUnits="userSpaceOnUse">
<stop stop-color="#B57FE6"/>
<stop offset="1" stop-color="#6645AB"/>
</linearGradient>
<linearGradient id="paint1_linear_2799_43272" x1="35.998" y1="6" x2="0.999348" y2="6" gradientUnits="userSpaceOnUse">
<stop stop-color="#B57FE6"/>
<stop offset="1" stop-color="#6645AB"/>
</linearGradient>
<linearGradient id="paint2_linear_2799_43272" x1="21.123" y1="14.125" x2="28.1228" y2="14.125" gradientUnits="userSpaceOnUse">
<stop stop-color="#B57FE6"/>
<stop offset="1" stop-color="#6645AB"/>
</linearGradient>
<linearGradient id="paint3_linear_2799_43272" x1="8.875" y1="14.125" x2="15.8747" y2="14.125" gradientUnits="userSpaceOnUse">
<stop stop-color="#B57FE6"/>
<stop offset="1" stop-color="#6645AB"/>
</linearGradient>
<linearGradient id="paint4_linear_2799_43272" x1="12.375" y1="8.5" x2="24.6245" y2="8.5" gradientUnits="userSpaceOnUse">
<stop stop-color="#B57FE6"/>
<stop offset="1" stop-color="#6645AB"/>
</linearGradient>
</defs>
</svg>
