<svg width="31" height="31" viewBox="0 0 31 31" fill="none" xmlns="http://www.w3.org/2000/svg">
<path d="M10.6673 3.41667C10.6673 4.75136 9.58534 5.83333 8.25065 5.83333C6.91596 5.83333 5.83398 4.75136 5.83398 3.41667C5.83398 2.08198 6.91596 1 8.25065 1C9.58534 1 10.6673 2.08198 10.6673 3.41667Z" stroke="url(#paint0_linear_2799_43296)" stroke-width="2"/>
<path d="M10.6673 3.41667C10.6673 4.75136 9.58534 5.83333 8.25065 5.83333C6.91596 5.83333 5.83398 4.75136 5.83398 3.41667C5.83398 2.08198 6.91596 1 8.25065 1C9.58534 1 10.6673 2.08198 10.6673 3.41667Z" stroke="black" stroke-opacity="0.2" stroke-width="2"/>
<path d="M10.6673 3.41667C10.6673 4.75136 9.58534 5.83333 8.25065 5.83333C6.91596 5.83333 5.83398 4.75136 5.83398 3.41667C5.83398 2.08198 6.91596 1 8.25065 1C9.58534 1 10.6673 2.08198 10.6673 3.41667Z" stroke="black" stroke-opacity="0.2" stroke-width="2"/>
<path d="M10.6673 3.41667C10.6673 4.75136 9.58534 5.83333 8.25065 5.83333C6.91596 5.83333 5.83398 4.75136 5.83398 3.41667C5.83398 2.08198 6.91596 1 8.25065 1C9.58534 1 10.6673 2.08198 10.6673 3.41667Z" stroke="black" stroke-opacity="0.2" stroke-width="2"/>
<path d="M10.6673 3.41667C10.6673 4.75136 9.58534 5.83333 8.25065 5.83333C6.91596 5.83333 5.83398 4.75136 5.83398 3.41667C5.83398 2.08198 6.91596 1 8.25065 1C9.58534 1 10.6673 2.08198 10.6673 3.41667Z" stroke="black" stroke-opacity="0.2" stroke-width="2"/>
<path d="M17.1111 7.44434L13.1195 9.24238C12.6571 9.50464 12.4259 9.63577 12.1674 9.69051C11.909 9.74525 11.6407 9.71989 11.1041 9.66917L8.81194 9.45249M6.44229 29.9999L6.44229 23.6101C6.44229 22.908 6.44229 22.5569 6.29214 22.2483C6.14199 21.9397 5.86 21.7112 5.29602 21.2543L4.52751 20.6316M8.81194 9.45249L6.51977 9.23582C5.29989 9.1205 4.68995 9.06285 4.21335 9.34604C3.73674 9.62924 3.52726 10.1738 3.10829 11.2629L1.47442 15.5102C1.09881 16.4866 0.910999 16.9748 1.04115 17.4435C1.1713 17.9122 1.58855 18.2503 2.42307 18.9265L4.52751 20.6316M8.81194 9.45249L4.52751 20.6316" stroke="url(#paint1_linear_2799_43296)" stroke-width="2" stroke-linecap="round" stroke-linejoin="round"/>
<path d="M17.1111 7.44434L13.1195 9.24238C12.6571 9.50464 12.4259 9.63577 12.1674 9.69051C11.909 9.74525 11.6407 9.71989 11.1041 9.66917L8.81194 9.45249M6.44229 29.9999L6.44229 23.6101C6.44229 22.908 6.44229 22.5569 6.29214 22.2483C6.14199 21.9397 5.86 21.7112 5.29602 21.2543L4.52751 20.6316M8.81194 9.45249L6.51977 9.23582C5.29989 9.1205 4.68995 9.06285 4.21335 9.34604C3.73674 9.62924 3.52726 10.1738 3.10829 11.2629L1.47442 15.5102C1.09881 16.4866 0.910999 16.9748 1.04115 17.4435C1.1713 17.9122 1.58855 18.2503 2.42307 18.9265L4.52751 20.6316M8.81194 9.45249L4.52751 20.6316" stroke="black" stroke-opacity="0.2" stroke-width="2" stroke-linecap="round" stroke-linejoin="round"/>
<path d="M17.1111 7.44434L13.1195 9.24238C12.6571 9.50464 12.4259 9.63577 12.1674 9.69051C11.909 9.74525 11.6407 9.71989 11.1041 9.66917L8.81194 9.45249M6.44229 29.9999L6.44229 23.6101C6.44229 22.908 6.44229 22.5569 6.29214 22.2483C6.14199 21.9397 5.86 21.7112 5.29602 21.2543L4.52751 20.6316M8.81194 9.45249L6.51977 9.23582C5.29989 9.1205 4.68995 9.06285 4.21335 9.34604C3.73674 9.62924 3.52726 10.1738 3.10829 11.2629L1.47442 15.5102C1.09881 16.4866 0.910999 16.9748 1.04115 17.4435C1.1713 17.9122 1.58855 18.2503 2.42307 18.9265L4.52751 20.6316M8.81194 9.45249L4.52751 20.6316" stroke="black" stroke-opacity="0.2" stroke-width="2" stroke-linecap="round" stroke-linejoin="round"/>
<path d="M17.1111 7.44434L13.1195 9.24238C12.6571 9.50464 12.4259 9.63577 12.1674 9.69051C11.909 9.74525 11.6407 9.71989 11.1041 9.66917L8.81194 9.45249M6.44229 29.9999L6.44229 23.6101C6.44229 22.908 6.44229 22.5569 6.29214 22.2483C6.14199 21.9397 5.86 21.7112 5.29602 21.2543L4.52751 20.6316M8.81194 9.45249L6.51977 9.23582C5.29989 9.1205 4.68995 9.06285 4.21335 9.34604C3.73674 9.62924 3.52726 10.1738 3.10829 11.2629L1.47442 15.5102C1.09881 16.4866 0.910999 16.9748 1.04115 17.4435C1.1713 17.9122 1.58855 18.2503 2.42307 18.9265L4.52751 20.6316M8.81194 9.45249L4.52751 20.6316" stroke="black" stroke-opacity="0.2" stroke-width="2" stroke-linecap="round" stroke-linejoin="round"/>
<path d="M17.1111 7.44434L13.1195 9.24238C12.6571 9.50464 12.4259 9.63577 12.1674 9.69051C11.909 9.74525 11.6407 9.71989 11.1041 9.66917L8.81194 9.45249M6.44229 29.9999L6.44229 23.6101C6.44229 22.908 6.44229 22.5569 6.29214 22.2483C6.14199 21.9397 5.86 21.7112 5.29602 21.2543L4.52751 20.6316M8.81194 9.45249L6.51977 9.23582C5.29989 9.1205 4.68995 9.06285 4.21335 9.34604C3.73674 9.62924 3.52726 10.1738 3.10829 11.2629L1.47442 15.5102C1.09881 16.4866 0.910999 16.9748 1.04115 17.4435C1.1713 17.9122 1.58855 18.2503 2.42307 18.9265L4.52751 20.6316M8.81194 9.45249L4.52751 20.6316" stroke="black" stroke-opacity="0.2" stroke-width="2" stroke-linecap="round" stroke-linejoin="round"/>
<path d="M28.3895 10.6668C27.4494 10.6668 26.5641 10.2309 26 9.4903L24.3458 7.3183C24.1266 7.03051 24.017 6.88662 23.9103 6.77348C22.993 5.80073 21.5277 5.55357 20.334 6.17023" stroke="url(#paint2_linear_2799_43296)" stroke-width="2" stroke-linecap="round" stroke-linejoin="round"/>
<path d="M28.3895 10.6668C27.4494 10.6668 26.5641 10.2309 26 9.4903L24.3458 7.3183C24.1266 7.03051 24.017 6.88662 23.9103 6.77348C22.993 5.80073 21.5277 5.55357 20.334 6.17023" stroke="black" stroke-opacity="0.2" stroke-width="2" stroke-linecap="round" stroke-linejoin="round"/>
<path d="M28.3895 10.6668C27.4494 10.6668 26.5641 10.2309 26 9.4903L24.3458 7.3183C24.1266 7.03051 24.017 6.88662 23.9103 6.77348C22.993 5.80073 21.5277 5.55357 20.334 6.17023" stroke="black" stroke-opacity="0.2" stroke-width="2" stroke-linecap="round" stroke-linejoin="round"/>
<path d="M28.3895 10.6668C27.4494 10.6668 26.5641 10.2309 26 9.4903L24.3458 7.3183C24.1266 7.03051 24.017 6.88662 23.9103 6.77348C22.993 5.80073 21.5277 5.55357 20.334 6.17023" stroke="black" stroke-opacity="0.2" stroke-width="2" stroke-linecap="round" stroke-linejoin="round"/>
<path d="M28.3895 10.6668C27.4494 10.6668 26.5641 10.2309 26 9.4903L24.3458 7.3183C24.1266 7.03051 24.017 6.88662 23.9103 6.77348C22.993 5.80073 21.5277 5.55357 20.334 6.17023" stroke="black" stroke-opacity="0.2" stroke-width="2" stroke-linecap="round" stroke-linejoin="round"/>
<path d="M30 23.5556C27.9292 23.5556 25.9572 22.6653 24.5814 21.1093L23.4886 19.8734C21.9078 18.0855 19.8041 16.8815 17.5104 16.4118M13.6842 16.1912C13.185 16.1912 12.9355 16.1912 12.7041 16.1576C10.7072 15.8678 9.57114 13.5829 8.25 12.2778" stroke="url(#paint3_linear_2799_43296)" stroke-width="2" stroke-linecap="round" stroke-linejoin="round"/>
<path d="M30 23.5556C27.9292 23.5556 25.9572 22.6653 24.5814 21.1093L23.4886 19.8734C21.9078 18.0855 19.8041 16.8815 17.5104 16.4118M13.6842 16.1912C13.185 16.1912 12.9355 16.1912 12.7041 16.1576C10.7072 15.8678 9.57114 13.5829 8.25 12.2778" stroke="black" stroke-opacity="0.2" stroke-width="2" stroke-linecap="round" stroke-linejoin="round"/>
<path d="M30 23.5556C27.9292 23.5556 25.9572 22.6653 24.5814 21.1093L23.4886 19.8734C21.9078 18.0855 19.8041 16.8815 17.5104 16.4118M13.6842 16.1912C13.185 16.1912 12.9355 16.1912 12.7041 16.1576C10.7072 15.8678 9.57114 13.5829 8.25 12.2778" stroke="black" stroke-opacity="0.2" stroke-width="2" stroke-linecap="round" stroke-linejoin="round"/>
<path d="M30 23.5556C27.9292 23.5556 25.9572 22.6653 24.5814 21.1093L23.4886 19.8734C21.9078 18.0855 19.8041 16.8815 17.5104 16.4118M13.6842 16.1912C13.185 16.1912 12.9355 16.1912 12.7041 16.1576C10.7072 15.8678 9.57114 13.5829 8.25 12.2778" stroke="black" stroke-opacity="0.2" stroke-width="2" stroke-linecap="round" stroke-linejoin="round"/>
<path d="M30 23.5556C27.9292 23.5556 25.9572 22.6653 24.5814 21.1093L23.4886 19.8734C21.9078 18.0855 19.8041 16.8815 17.5104 16.4118M13.6842 16.1912C13.185 16.1912 12.9355 16.1912 12.7041 16.1576C10.7072 15.8678 9.57114 13.5829 8.25 12.2778" stroke="black" stroke-opacity="0.2" stroke-width="2" stroke-linecap="round" stroke-linejoin="round"/>
<defs>
<linearGradient id="paint0_linear_2799_43296" x1="5.83398" y1="3.41667" x2="10.6673" y2="3.41667" gradientUnits="userSpaceOnUse">
<stop stop-color="#B57FE6"/>
<stop offset="1" stop-color="#6645AB"/>
</linearGradient>
<linearGradient id="paint1_linear_2799_43296" x1="1" y1="18.7221" x2="17.1111" y2="18.7221" gradientUnits="userSpaceOnUse">
<stop stop-color="#B57FE6"/>
<stop offset="1" stop-color="#6645AB"/>
</linearGradient>
<linearGradient id="paint2_linear_2799_43296" x1="20.334" y1="8.25016" x2="28.3895" y2="8.25016" gradientUnits="userSpaceOnUse">
<stop stop-color="#B57FE6"/>
<stop offset="1" stop-color="#6645AB"/>
</linearGradient>
<linearGradient id="paint3_linear_2799_43296" x1="8.25" y1="17.9167" x2="30" y2="17.9167" gradientUnits="userSpaceOnUse">
<stop stop-color="#B57FE6"/>
<stop offset="1" stop-color="#6645AB"/>
</linearGradient>
</defs>
</svg>
